<?xml version="1.0" encoding="UTF-8"?>
<svg id="Layer_1" xmlns="http://www.w3.org/2000/svg" version="1.1" viewBox="0 0 800 800">
  <!-- Generator: Adobe Illustrator 29.1.0, SVG Export Plug-In . SVG Version: 2.1.0 Build 142)  -->
  <defs>
    <style>
      .st0 {
        fill: #adadad;
      }
    </style>
  </defs>
  <path class="st0" d="M473.6,463.1l33.5,3.5v272.2l-92.3-98.6v-156.9l26.8,13.1,32.1-33.3h0ZM326.4,463.1l-33.5,3.5v272.2l92.3-98.6v-156.9l-26.8,13.1-32-33.3h0ZM579.7,292.6l10.9,37.7-32.5,21.8-2.8,39.1-38,9.4-16,35.8-38.9-4.1-27.3,28-35.1-17.2-35.1,17.2-27.3-28.2-38.9,4.1-16-35.8-38-9.3-2.8-39.1-32.6-21.9,10.9-37.7-23-31.8,23-31.7-11-37.6,32.5-21.8,2.8-39.1,38.1-9.3,16-35.8,38.9,4.1,27.3-28.2,35.1,17.2,35.1-17.2,27.3,28.2,38.9-4.1,16,35.8,38,9.4,2.8,39.1,32.5,21.8-10.9,37.7,23.1,31.5-23.1,31.8h0v.2ZM507.2,260.8c0-58.7-47.6-106.4-106.4-106.4s-106.4,47.6-106.4,106.4,47.6,106.4,106.4,106.4,106.3-47.7,106.4-106.4h0ZM400.9,183.9c-42.5,0-77,34.5-77,77s34.5,77,77,77,77-34.5,77-77c0-42.5-34.5-76.8-77-76.9h0Z"/>
</svg>