<?xml version="1.0" encoding="UTF-8"?>
<svg id="Layer_1" xmlns="http://www.w3.org/2000/svg" version="1.1" viewBox="0 0 800 800">
  <!-- Generator: Adobe Illustrator 29.1.0, SVG Export Plug-In . SVG Version: 2.1.0 Build 142)  -->
  <defs>
    <style>
      .st0 {
        fill: #adadad;
      }
    </style>
  </defs>
  <path class="st0" d="M485.3,473.6l38.8,4v315.4l-107-114.2v-181.8l31.1,15.2,37.2-38.6h-.1ZM314.7,473.6l-38.8,4v315.4l107-114.2v-181.8l-31.1,15.2-37.1-38.6h0ZM608.2,276l12.6,43.7-37.7,25.3-3.2,45.3-44,10.9-18.5,41.5-45.1-4.8-31.6,32.5-40.7-19.9-40.7,19.9-31.6-32.7-45.1,4.8-18.5-41.5-44-10.8-3.2-45.3-37.8-25.4,12.6-43.7-26.6-36.8,26.6-36.7-12.7-43.6,37.7-25.3,3.2-45.3,44.1-10.8,18.5-41.5,45.1,4.8,31.6-32.7,40.7,19.9,40.7-19.9,31.6,32.7,45.1-4.8,18.5,41.5,44,10.9,3.2,45.3,37.7,25.3-12.6,43.7,26.8,36.5-26.8,36.8h.1ZM524.2,239.2c0-68-55.2-123.3-123.3-123.3s-123.3,55.2-123.3,123.3,55.2,123.3,123.3,123.3,123.2-55.3,123.3-123.3h0ZM401,150c-49.3,0-89.2,40-89.2,89.2s40,89.2,89.2,89.2,89.2-40,89.2-89.2c-.1-49.3-40-89-89.2-89.1h0Z"/>
</svg>