<?xml version="1.0" encoding="UTF-8"?>
<svg id="Layer_1" xmlns="http://www.w3.org/2000/svg" version="1.1" viewBox="0 0 20 20">
  <!-- Generator: Adobe Illustrator 29.1.0, SVG Export Plug-In . SVG Version: 2.1.0 Build 142)  -->
  <defs>
    <style>
      .st0 {
        fill: none;
        stroke: #999;
        stroke-miterlimit: 10;
        stroke-width: 1.2px;
      }

      .st1 {
        fill: #ccc;
      }
    </style>
  </defs>
  <path class="st1" d="M17.9,6.2h-3.2c-.6,0-1.1-.5-1.1-1.1V1.9c0-.6.5-1.1,1.1-1.1h3.2c.6,0,1.1.5,1.1,1.1v3.1c0,.8-.5,1.2-1.1,1.2Z"/>
  <path class="st1" d="M5.3,6.2h-3.2c-.6,0-1.1-.5-1.1-1.1V1.9c0-.6.5-1.1,1.1-1.1h3.1c.7,0,1.2.5,1.2,1.1v3.1c0,.7-.4,1.2-1.1,1.2Z"/>
  <path class="st1" d="M11.6,6.2h-3.2c-.6,0-1.1-.5-1.1-1.1V1.9c0-.6.5-1.1,1.1-1.1h3.2c.6,0,1.1.5,1.1,1.1v3.1c.1.7-.5,1.2-1.1,1.2Z"/>
  <polyline class="st0" points="7.3 8.4 10 11 12.6 8.3"/>
  <path class="st1" d="M17.9,19.2H2.1c-.6,0-1.1-.5-1.1-1.1v-3.2c0-.6.5-1.1,1.1-1.1h15.8c.6,0,1.1.5,1.1,1.1v3.2c0,.6-.5,1.1-1.1,1.1Z"/>
</svg>