<?xml version="1.0" encoding="UTF-8"?>
<svg id="Layer_1" data-name="Layer 1" xmlns="http://www.w3.org/2000/svg" version="1.1" viewBox="0 0 20 20">
  <defs>
    <style>
      .cls-1 {
        fill: #ccc;
        stroke-width: 0px;
      }

      .cls-2 {
        stroke-linecap: round;
      }

      .cls-2, .cls-3 {
        fill: none;
        stroke: #ccc;
        stroke-miterlimit: 10;
      }
    </style>
  </defs>
  <path class="cls-1" d="M17.9,19.2h-3.2c-.6,0-1.1-.5-1.1-1.1v-3.2c0-.6.5-1.1,1.1-1.1h3.2c.6,0,1.1.5,1.1,1.1v3.2c0,.6-.5,1.1-1.1,1.1Z"/>
  <path class="cls-1" d="M5.3,19.2h-3.2c-.6,0-1.1-.5-1.1-1.1v-3.2c0-.6.5-1.1,1.1-1.1h3.2c.6,0,1.1.5,1.1,1.1v3.2c0,.6-.4,1.1-1.1,1.1Z"/>
  <path class="cls-1" d="M11.6,19.2h-3.2c-.6,0-1.1-.5-1.1-1.1v-3.2c0-.6.5-1.1,1.1-1.1h3.2c.6,0,1.1.5,1.1,1.1v3.2c.1.6-.5,1.1-1.1,1.1Z"/>
  <path class="cls-1" d="M11.9,7.4h-3.8c-.7,0-1.3-.6-1.3-1.3v-3.9c0-.7.6-1.3,1.3-1.3h3.8c.7,0,1.3.6,1.3,1.3v3.9c0,.7-.4,1.3-1.3,1.3Z"/>
  <g id="Layer_2" data-name="Layer 2">
    <line class="cls-3" x1="3.6" y1="13.9" x2="3.6" y2="10.9"/>
    <line class="cls-2" x1="3.6" y1="10.9" x2="9.9" y2="10.9"/>
    <line class="cls-3" x1="16.4" y1="13.9" x2="16.4" y2="10.9"/>
    <line class="cls-2" x1="16.4" y1="10.9" x2="10.1" y2="10.9"/>
    <line class="cls-3" x1="10" y1="13.9" x2="10" y2="7.1"/>
  </g>
</svg>