<?xml version="1.0" encoding="UTF-8"?>
<svg id="Layer_1" xmlns="http://www.w3.org/2000/svg" version="1.1" viewBox="0 0 100 100">
  <!-- Generator: Adobe Illustrator 29.1.0, SVG Export Plug-In . SVG Version: 2.1.0 Build 142)  -->
  <defs>
    <style>
      .st0 {
        fill: #adadad;
      }
    </style>
  </defs>
  <path class="st0" d="M82.3,21.9c.8.2,1.3,1.1,1,1.9l-5.5,19c-.6,2-.9,4.1-.9,6.2v6.4c0,3.6-1.7,6.8-4.4,9.1h10.9c.8,0,1.5.7,1.5,1.5s-.7,1.5-1.5,1.5h0c0-.1-78.6-.1-78.6-.1-.8,0-1.5-.7-1.5-1.5s.7-1.5,1.5-1.5h50.3c-1.3-.5-2.7-.9-4-1.1l-32.8-5.8c-3.2-.6-5.4-3.4-5.2-6.7.1-1.8,1.1-3.5,2.6-4.6,1.5-1.1,3.3-1.5,5.1-1.1,1.4.3,2.8.3,4.2,0l22.3-4.4c3.8-.8,6.9-3.9,7.5-7.7l1.9-10.8c0-.8.9-1.4,1.7-1.2M96,65.8c-1.4-1.2-2.2-2.4-2.2-3.7,0-2,1.3-3.5,1.4-3.5.4-.4.5-1.1.3-1.6-.2-.6-.8-.9-1.4-.9,0,0-2.3,0-3.3-1.4-.6-.7-.8-1.7-.5-3,0-.8-.4-1.6-1.2-1.7-.8,0-1.6.4-1.7,1.2-.4,2.2,0,4,1.2,5.5.9,1.1,2.1,1.7,3.1,2.1-.5,1-.9,2.2-.8,3.7,0,1.3.5,2.5,1.2,3.6-1,.3-2,.8-2.8,1.7-1.1,1.2-1.6,2.8-1.5,4.7-3-.2-6.8.7-8.1,4.9-.2.8.2,1.6,1,1.9h.4c.6,0,1.2-.4,1.4-1.1,1.2-3.9,6.4-2.5,6.6-2.5.5,0,1,0,1.4-.4s.5-.9.4-1.4c-.4-1.9-.3-3.4.5-4.2,1-1.1,2.9-1.1,3.5-1.1s1.3-.3,1.5-.9c.3-.6,0-1.3-.4-1.7v-.2Z"/>
</svg>