<?xml version="1.0" encoding="UTF-8"?>
<svg id="Layer_1" xmlns="http://www.w3.org/2000/svg" version="1.1" viewBox="0 0 1280 1180">
  <!-- Generator: Adobe Illustrator 29.1.0, SVG Export Plug-In . SVG Version: 2.1.0 Build 142)  -->
  <defs>
    <style>
      .st0 {
        fill: #adadad;
      }
    </style>
  </defs>
  <path class="st0" d="M377.5,2.8c-15.8,7.2-24.3,13.1-31.4,21.7-8.1,9.8-19.1,30.9-36.1,69-16.1,36.2-17.1,37.9-30.5,53.5-11.6,13.4-15.4,18.6-18.6,25.5-3.5,7.3-3.6,10.5-.7,27.3,1.8,11,2,13.6,1,19.7-4.6,28.4-7.1,38-14.7,57.5-8.4,21.6-27.5,65.1-31,70.6-1.8,2.7-10.9,12.6-20.2,22-24,23.9-24.1,24.2-20.7,54.7,2.7,24.3,2.2,27.7-9,60-15,43.1-24.7,67-37.6,92.7-4.4,8.6-8,14-14.4,21.5-4.7,5.5-9.8,12.2-11.3,15-3.1,5.5-3.3,9.7-2.3,41,.6,16.3,1,14.8-15,55.5-5.1,12.8-11.1,29-13.5,35.9-7.9,22.9-16,38.2-43.3,81.1-8.6,13.5-16.2,26.1-16.9,28-2.1,6-1.6,14.8,1.2,20.8,2.8,6.1,3.1,10.9,1.1,19.1-.8,3.1-1.7,9.6-2.1,14.6-.9,12.6-4,33.1-8.2,52.9l-3.5,16.9,1.7,12.7c3.5,27.7,10.2,50.2,21.7,73,9.7,19.3,18.1,31.1,32.8,46.3,20,20.7,39.1,34.3,68.5,48.7,9.9,4.9,24.3,11.2,32,14.2l14,5.3,380.5.3,380.5.2,9.5-2.7c44.1-12.5,79.3-39.2,107.7-81.8,13.3-19.9,13.7-20.9,34.2-89.1,20.2-67.3,22.4-74.6,70.6-232.9,17.2-56.7,36.4-119.7,42.5-140,6.1-20.4,12.7-42.2,14.6-48.5,18.9-62.4,51.8-175.4,62.3-214,7-25.9,8.6-41.2,6-59.7-3.3-23.5-14-42.5-32.3-57-6.5-5.1-28.2-17.3-30.9-17.3s-.7,5.4-.7,11.9c0,11.1-.3,12.9-3.9,24.8-2.2,7-6.3,20.4-9.1,29.8-2.8,9.3-7.3,24.2-10,33s-6.5,21.4-8.5,28-35.1,115.9-73.7,243c-38.5,127-73,241.1-76.8,253.5-3.7,12.4-9.8,32.4-13.5,44.5-7.8,25.8-14.5,48-21.6,71.2-2.8,9.3-6.6,21.7-8.4,27.8-1.9,6-4.3,14.9-5.4,19.7-5.5,23.6-17.6,40.2-35.6,48.8-8.8,4.2-13.9,5.6-25.1,7-4.4.6-156,1-384.6,1-372.9.1-377.4.1-385-1.9-26.9-6.9-50.7-25-61.5-46.7-4.2-8.5-4.7-10.3-5.1-17.8-.3-5.2,0-9.8.8-12.1,1.8-5.4,8.6-12.4,15-15.4l5.5-2.6,354.5-.6c322.4-.5,355.6-.7,366.5-2.2,51.5-7.1,70.7-24.3,94.9-85.4,3.2-8.2,17.6-54.3,35-112.4,73.9-246.9,95.1-317.6,147.1-491.4,16.3-54.5,32.3-107.1,35.5-117,11-33.5,15.1-54.6,15.2-78,0-19.5-2.4-31.7-9.3-46.2-7.8-16.3-23.4-30.8-42.6-39.4-8.5-3.8-26.6-9.3-35.8-10.8C1064.2.2,989.1,0,763.5.2c-287.9.3-299.3.4-307.5,2.2-15.6,3.4-50.3,2.5-70.5-2-1.1-.2-4.7.8-8,2.4ZM679,118.6c125.6,14.1,219.9,96.2,234.1,203.9,1.7,13.3.6,44.3-2.1,57-12.7,59.8-52.5,108.2-115.5,140.5-18.8,9.6-36,16.2-62.5,24.1-16.1,4.8-24.2,9.3-32.6,18.1-10.5,10.9-16.8,22.4-23.8,43.4-2,6.2-4.6,12-5.7,13-3.2,2.9-21.6,3.5-97.4,3.2-76.3-.3-72.7-.1-78.2-6-4.7-5.1-4.7-8.7.2-29.4,12.9-54.5,20-73.6,33.9-92.1,16-21.3,37.3-38.2,66.3-52.7,15.3-7.6,21.7-10.3,56.2-23.7,29.2-11.4,42.4-17.6,53.3-24.8,23.7-15.9,31.1-37.3,23.2-67.8-4.8-18.7-28.5-35.8-54.7-39.3-19.4-2.7-43.2,3.7-65.6,17.7-16.6,10.4-39.6,30.9-52.6,47.2-3.4,4.2-7.7,8.3-9.9,9.4l-3.9,2-26.1-8.6c-40.2-13.4-101.8-39.1-106.5-44.4-3.3-3.8-2.4-9.3,4.5-26.6,27.8-70.2,67.9-117.8,120.9-143.6,26.8-13.1,53.9-19.9,90-22.5,9.4-.7,41,.5,54.5,2ZM640.4,653.4c9.2,2.8,15.6,9.8,15.6,17.2s-7.8,30.5-20,68c-3.3,10.2-9.2,28.5-13.1,40.7-7.9,24.5-9.4,28-14.5,33.6-6.7,7.5-1.3,7.1-87.3,7.1s-81.1.1-85.4-4.7c-3.3-3.7-3.1-8.2.8-25.4,4.4-19.1,9.5-37.3,20.3-71.4,4.4-13.8,10.1-32.6,12.7-41.9,5-17.5,6.8-21,11.9-23.2,4.7-2,152.2-2,159,0Z"/>
</svg>