<?xml version="1.0" encoding="UTF-8"?>
<svg id="Layer_1" xmlns="http://www.w3.org/2000/svg" version="1.1" viewBox="0 0 1280 1180">
  <!-- Generator: Adobe Illustrator 29.1.0, SVG Export Plug-In . SVG Version: 2.1.0 Build 142)  -->
  <defs>
    <style>
      .st0 {
        fill: #adadad;
      }
    </style>
  </defs>
  <path class="st0" d="M425.3,109.6c-12.9,5.9-19.9,10.7-25.7,17.8-6.6,8-15.6,25.3-29.5,56.4-13.2,29.6-14,31-25,43.8-9.5,11-12.6,15.2-15.2,20.9-2.9,6-2.9,8.6-.6,22.3,1.5,9,1.6,11.1.8,16.1-3.8,23.2-5.8,31.1-12,47-6.9,17.7-22.5,53.3-25.4,57.8-1.5,2.2-8.9,10.3-16.5,18-19.6,19.6-19.7,19.8-16.9,44.7,2.2,19.9,1.8,22.7-7.4,49.1-12.3,35.3-20.2,54.8-30.8,75.8-3.6,7-6.5,11.5-11.8,17.6-3.8,4.5-8,10-9.2,12.3-2.5,4.5-2.7,7.9-1.9,33.5.5,13.3.8,12.1-12.3,45.4-4.2,10.5-9.1,23.7-11,29.4-6.5,18.7-13.1,31.3-35.4,66.3-7,11-13.3,21.4-13.8,22.9-1.7,4.9-1.3,12.1,1,17,2.3,5,2.5,8.9.9,15.6-.7,2.5-1.4,7.9-1.7,11.9-.7,10.3-3.3,27.1-6.7,43.3l-2.9,13.8,1.4,10.4c2.9,22.7,8.3,41.1,17.8,59.7,7.9,15.8,14.8,25.4,26.8,37.9,16.4,16.9,32,28.1,56,39.8,8.1,4,19.9,9.2,26.2,11.6l11.5,4.3,311.3.2,311.3.2,7.8-2.2c36.1-10.2,64.9-32.1,88.1-66.9,10.9-16.3,11.2-17.1,28-72.9,16.5-55.1,18.3-61,57.8-190.5,14.1-46.4,29.8-97.9,34.8-114.5,5-16.7,10.4-34.5,11.9-39.7,15.5-51,42.4-143.5,51-175.1,5.7-21.2,7-33.7,4.9-48.8-2.7-19.2-11.5-34.8-26.4-46.6-5.3-4.2-23.1-14.2-25.3-14.2s-.6,4.4-.6,9.7c0,9.1-.2,10.6-3.2,20.3-1.8,5.7-5.2,16.7-7.4,24.4-2.3,7.6-6,19.8-8.2,27s-5.3,17.5-7,22.9-28.7,94.8-60.3,198.8c-31.5,103.9-59.7,197.2-62.8,207.4-3,10.1-8,26.5-11,36.4-6.4,21.1-11.9,39.3-17.7,58.2-2.3,7.6-5.4,17.8-6.9,22.7-1.6,4.9-3.5,12.2-4.4,16.1-4.5,19.3-14.4,32.9-29.1,39.9-7.2,3.4-11.4,4.6-20.5,5.7-3.6.5-127.6.8-314.6.8-305.1,0-308.7,0-315-1.6-22-5.6-41.5-20.5-50.3-38.2-3.4-7-3.8-8.4-4.2-14.6-.2-4.3,0-8,.7-9.9,1.5-4.4,7-10.1,12.3-12.6l4.5-2.1,290-.5c263.7-.4,290.9-.6,299.8-1.8,42.1-5.8,57.8-19.9,77.6-69.9,2.6-6.7,14.4-44.4,28.6-92,60.5-202,77.8-259.8,120.3-402,13.3-44.6,26.4-87.6,29-95.7,9-27.4,12.4-44.7,12.4-63.8,0-16-2-25.9-7.6-37.8-6.4-13.3-19.1-25.2-34.9-32.2-7-3.1-21.8-7.6-29.3-8.8-4.3-.7-65.8-.9-250.3-.7-235.5.2-244.9.3-251.6,1.8-12.8,2.8-41.1,2-57.7-1.6-.9-.2-3.8.7-6.5,2ZM672,204.3c102.8,11.5,179.9,78.7,191.5,166.8,1.4,10.9.5,36.2-1.7,46.6-10.4,48.9-42.9,88.5-94.5,114.9-15.4,7.9-29.5,13.3-51.1,19.7-13.2,3.9-19.8,7.6-26.7,14.8-8.6,8.9-13.7,18.3-19.5,35.5-1.6,5.1-3.8,9.8-4.7,10.6-2.6,2.4-17.7,2.9-79.7,2.6-62.4-.2-59.5,0-64-4.9-3.8-4.2-3.8-7.1.2-24.1,10.6-44.6,16.4-60.2,27.7-75.3,13.1-17.4,30.5-31.3,54.2-43.1,12.5-6.2,17.8-8.4,46-19.4,23.9-9.3,34.7-14.4,43.6-20.3,19.4-13,25.4-30.5,19-55.5-3.9-15.3-23.3-29.3-44.7-32.2-15.9-2.2-35.3,3-53.7,14.5-13.6,8.5-32.4,25.3-43,38.6-2.8,3.4-6.3,6.8-8.1,7.7l-3.2,1.6-21.4-7c-32.9-11-83.3-32-87.1-36.3-2.7-3.1-2-7.6,3.7-21.8,22.7-57.4,55.5-96.4,98.9-117.5,21.9-10.7,44.1-16.3,73.6-18.4,7.7-.6,33.5.4,44.6,1.6h0ZM640.4,641.8c7.5,2.3,12.8,8,12.8,14.1s-6.4,25-16.4,55.6c-2.7,8.3-7.5,23.3-10.7,33.3-6.5,20-7.7,22.9-11.9,27.5-5.5,6.1-1.1,5.8-71.4,5.8s-66.3,0-69.9-3.8c-2.7-3-2.5-6.7.7-20.8,3.6-15.6,7.8-30.5,16.6-58.4,3.6-11.3,8.3-26.7,10.4-34.3,4.1-14.3,5.6-17.2,9.7-19,3.8-1.6,124.5-1.6,130.1,0h0Z"/>
</svg>