<?xml version="1.0" encoding="UTF-8"?>
<svg id="Layer_1" xmlns="http://www.w3.org/2000/svg" version="1.1" viewBox="0 0 20 20">
  <!-- Generator: Adobe Illustrator 29.1.0, SVG Export Plug-In . SVG Version: 2.1.0 Build 142)  -->
  <defs>
    <style>
      .st0 {
        fill: #4d4d4d;
        stroke: #999;
        stroke-miterlimit: 10;
        stroke-width: .5px;
      }
    </style>
  </defs>
  <path class="st0" d="M16.7,17.6h-2.8c-.5,0-.9-.4-.9-.9v-2.7c0-.5.4-.9.9-.9h2.8c.5,0,.9.4.9.9v2.7c0,.5-.4.9-.9.9Z"/>
  <path class="st0" d="M6,17.6h-2.7c-.5,0-.9-.4-.9-.9v-2.7c0-.5.4-.9.9-.9h2.8c.5,0,.9.4.9.9v2.7c0,.5-.4.9-1,.9Z"/>
  <path class="st0" d="M11.3,17.6h-2.7c-.5,0-.9-.4-.9-.9v-2.7c0-.5.4-.9.9-.9h2.8c.5,0,.9.4.9.9v2.7c0,.5-.5.9-1,.9Z"/>
  <path class="st0" d="M16.7,12.3h-2.8c-.5,0-.9-.4-.9-.9v-2.7c0-.5.4-.9.9-.9h2.8c.5,0,.9.4.9.9v2.7c0,.5-.4.9-.9.9Z"/>
  <path class="st0" d="M6,12.3h-2.7c-.5,0-.9-.4-.9-.9v-2.7c0-.5.4-.9.9-.9h2.8c.5,0,.9.4.9.9v2.7c0,.5-.4.9-1,.9Z"/>
  <path class="st0" d="M11.3,12.3h-2.7c-.5,0-.9-.4-.9-.9v-2.7c0-.5.4-.9.9-.9h2.8c.5,0,.9.4.9.9v2.7c0,.5-.5.9-1,.9Z"/>
  <path class="st0" d="M16.7,6.9h-2.8c-.5,0-.9-.4-.9-.9v-2.7c0-.5.4-.9.9-.9h2.8c.5,0,.9.4.9.9v2.7c0,.5-.4.9-.9.9Z"/>
  <path class="st0" d="M6,6.9h-2.7c-.5,0-.9-.4-.9-.9v-2.7c0-.5.4-.9.9-.9h2.8c.5,0,.9.4.9.9v2.7c0,.5-.4.9-1,.9Z"/>
  <path class="st0" d="M11.3,6.9h-2.7c-.5,0-.9-.4-.9-.9v-2.7c0-.5.4-.9.9-.9h2.8c.5,0,.9.4.9.9v2.7c0,.5-.5.9-1,.9Z"/>
</svg>