<?xml version="1.0" encoding="UTF-8"?>
<svg id="Layer_1" xmlns="http://www.w3.org/2000/svg" version="1.1" xmlns:serif="http://www.serif.com/" viewBox="0 0 1067 1080">
  <!-- Generator: Adobe Illustrator 29.1.0, SVG Export Plug-In . SVG Version: 2.1.0 Build 142)  -->
  <defs>
    <style>
      .st0 {
        fill: none;
        stroke: #7c7b7b;
        stroke-linecap: round;
        stroke-linejoin: round;
        stroke-width: 23px;
      }

      .st1 {
        fill: #a5a5a5;
        isolation: isolate;
        opacity: .5;
        stroke: #606060;
        stroke-miterlimit: 10;
        stroke-width: 10px;
      }
    </style>
  </defs>
  <path class="st1" d="M370.6,670.8l-248.9,200V307.5l248.9-200v563.4h0Z"/>
  <path class="st1" d="M616,782l-239.7-111.2V107.5l239.7,111.2"/>
  <path class="st1" d="M947.7,670.8l-331.7,111.2V218.6l331.7-111.2"/>
  <path class="st1" d="M947.7,670.8l-193.1,296.7c-10.1,15.3-9.3-9.1-9.3-14V408.2c0-1,.3-2,.9-2.8l201.5-298"/>
  <g id="Layer_2">
    <path class="st0" d="M370.6,670.8V107.5h0"/>
    <path class="st0" d="M616,782V218.6h0"/>
    <path class="st0" d="M947.7,670.8V107.5h0"/>
  </g>
  <path class="st1" d="M745.3,970.1l-626-99.2V307.5l626,99.2"/>
  <path class="st0" d="M121.7,871V307.6h0"/>
  <path class="st0" d="M745.3,970.1V406.7h0"/>
</svg>