<?xml version="1.0" encoding="UTF-8"?>
<svg id="Layer_1" xmlns="http://www.w3.org/2000/svg" version="1.1" xmlns:serif="http://www.serif.com/" viewBox="0 0 1067 1080">
  <!-- Generator: Adobe Illustrator 29.1.0, SVG Export Plug-In . SVG Version: 2.1.0 Build 142)  -->
  <defs>
    <style>
      .st0 {
        fill: none;
        stroke-linecap: round;
        stroke-linejoin: round;
        stroke-width: 54px;
      }

      .st0, .st1 {
        stroke: #999;
      }

      .st1 {
        fill: #4d4d4d;
        stroke-miterlimit: 10;
        stroke-width: 27px;
      }
    </style>
  </defs>
  <g id="Layer_2">
    <path class="st0" d="M533.9,407.2l-.7,298.2.3-108.2,293.9-.3v107.9"/>
    <path class="st0" d="M533.6,597.3l-293.7.3v107.2"/>
  </g>
  <path class="st1" d="M902.2,967h-149.3c-28,0-51.3-23.3-51.3-51.3v-149.3c0-28,23.3-51.3,51.3-51.3h149.3c28,0,51.3,23.3,51.3,51.3v149.3c0,28-23.3,51.3-51.3,51.3Z"/>
  <path class="st1" d="M314.2,967h-149.3c-28,0-51.3-23.3-51.3-51.3v-149.3c0-28,23.3-51.3,51.3-51.3h149.3c28,0,51.3,23.3,51.3,51.3v149.3c4.7,28-18.7,51.3-51.3,51.3Z"/>
  <path class="st1" d="M608.2,967h-149.3c-28,0-51.3-23.3-51.3-51.3v-149.3c0-28,23.3-51.3,51.3-51.3h149.3c28,0,51.3,23.3,51.3,51.3v149.3c4.7,28-23.3,51.3-51.3,51.3Z"/>
  <path class="st1" d="M622.2,416.3h-177.3c-32.7,0-60.7-28-60.7-60.7v-182c0-32.7,28-60.7,60.7-60.7h177.3c32.7,0,60.7,28,60.7,60.7v182c0,32.7-18.7,60.7-60.7,60.7Z"/>
</svg>