<?xml version="1.0" encoding="UTF-8"?>
<svg id="Layer_1" xmlns="http://www.w3.org/2000/svg" version="1.1" viewBox="0 0 800 800">
  <!-- Generator: Adobe Illustrator 29.1.0, SVG Export Plug-In . SVG Version: 2.1.0 Build 142)  -->
  <defs>
    <style>
      .st0 {
        fill: #adadad;
      }
    </style>
  </defs>
  <path class="st0" d="M478.1,466.9l35.5,3.7v288.8l-98-104.6v-166.5l28.5,13.9,34.1-35.3ZM321.9,466.9l-35.5,3.7v288.8l98-104.6v-166.5l-28.5,13.9-34-35.3ZM590.6,286l11.5,40-34.5,23.2-2.9,41.5-40.3,10-16.9,38-41.3-4.4-28.9,29.8-37.3-18.2-37.3,18.2-28.9-29.9-41.3,4.4-16.9-38-40.3-9.9-2.9-41.5-34.6-23.3,11.5-40-24.4-33.7,24.4-33.6-11.6-39.9,34.5-23.2,2.9-41.5,40.4-9.9,16.9-38,41.3,4.4,28.9-29.9,37.3,18.2,37.3-18.2,28.9,29.9,41.3-4.4,16.9,38,40.3,10,2.9,41.5,34.5,23.2-11.5,40,24.5,33.4-24.5,33.7ZM513.7,252.3c0-62.3-50.5-112.9-112.9-112.9-62.3,0-112.9,50.5-112.9,112.9s50.5,112.9,112.9,112.9c62.3,0,112.8-50.6,112.9-112.9ZM400.9,170.6c-45.1,0-81.7,36.6-81.7,81.7s36.6,81.7,81.7,81.7,81.7-36.6,81.7-81.7c-.1-45.1-36.6-81.5-81.7-81.6h0Z"/>
</svg>