<?xml version="1.0" encoding="UTF-8"?>
<svg id="Layer_1" xmlns="http://www.w3.org/2000/svg" version="1.1" viewBox="0 0 800 800">
  <!-- Generator: Adobe Illustrator 29.1.0, SVG Export Plug-In . SVG Version: 2.1.0 Build 142)  -->
  <defs>
    <style>
      .st0 {
        fill: #adadad;
        stroke: #8a8b8b;
        stroke-miterlimit: 10;
        stroke-width: 10px;
      }
    </style>
  </defs>
  <path class="st0" d="M64.3,397.7v-137.4h57.9v143.3c0,50.1,15.8,67.5,44.4,67.5s45.4-17.3,45.4-67.5v-143.3h55.8v137.4c0,86-34.9,123.3-101.2,123.3s-102.3-37.4-102.3-123.3h0Z"/>
  <path class="st0" d="M326.9,260.3h72.4c78.2,0,128.6,38.9,128.6,126.9s-50.4,129.1-125.3,129.1h-75.6v-256ZM395.8,469.7c43.4,0,72.8-21.3,72.8-82.5s-29.3-80.3-72.8-80.3h-11v162.8h11Z"/>
  <path class="st0" d="M593,444.3c18.2,15.8,41.8,26.8,62.9,26.8s36-9.5,36-24.7-14.6-21.3-36.9-30.5l-33.3-14.2c-26.5-10.8-51.7-32.6-51.7-69.8s37.9-76.3,91.2-76.3,60.3,11.6,82.4,33.5l-29.2,36.5c-16.9-12.9-32.9-20.1-53.1-20.1s-32.7,8.3-32.7,23,16.7,21.4,39.1,30.3l32.6,13.2c31.3,12.6,50.8,33.5,50.8,69.6s-35.4,79.9-96.4,79.3-73.4-14.8-94.8-37l33.1-39.6Z"/>
</svg>